#!OML:ASF F:\VICON\USERDATA\INSTALL\Justin_Nancy\Justin_Nancy.ASF
:FULLY-SPECIFIED
:DEGREES
50
root 15.0814 16.5804 -10.1524 -3.28347 -7.1057 1.42582
lowerback 12.785 0.791812 1.43329
upperback 0.428959 1.3745 1.67277
thorax -6.73543 0.651517 0.704722
lowerneck -21.1234 -6.27749 -10.2913
upperneck 14.6144 -7.39436 9.65648
head 8.78956 -3.07499 3.94501
rclavicle -3.2551e-014 -1.19271e-014
rhumerus -45.1803 14.1561 -91.798
rradius 117.844
rwrist -18.5453
rhand -7.32721 16.4114
rfingers 7.12502
rthumb 18.5561 -12.7236
lclavicle -3.2551e-014 -1.19271e-014
lhumerus -52.6742 -5.27776 93.0358
lradius 105.704
lwrist 21.7195
lhand -13.8011 11.8411
lfingers 7.12502
lthumb 12.3209 41.458
rfemur -15.2923 -6.24539 32.6044
rtibia 49.5802
rfoot -19.0724 -11.4914
rtoes -2.51028
lfemur -24.2211 5.81101 -6.42703
ltibia 66.5529
lfoot -10.1592 2.13993
ltoes -7.4223
51
root 15.0535 16.568 -9.87751 -3.09419 -6.93389 1.25341
lowerback 12.9001 0.876309 1.69123
upperback 0.337892 1.52343 1.57641
thorax -6.88822 0.713065 0.427871
lowerneck -21.3178 -6.3999 -10.3805
upperneck 14.8274 -7.56181 9.79413
head 8.92412 -3.13743 3.98166
rclavicle 1.72446e-014 4.77083e-015
rhumerus -44.9064 14.5759 -92.1042
rradius 118.431
rwrist -17.7618
rhand -8.35231 15.5992
rfingers 7.12502
rthumb 17.5698 -13.6269
lclavicle 1.72446e-014 4.77083e-015
lhumerus -53.0751 -5.75464 93.1674
lradius 106
lwrist 21.9562
lhand -13.4379 11.877
lfingers 7.12502
lthumb 12.6711 41.4726
rfemur -14.6422 -6.1251 32.6543
rtibia 50.0883
rfoot -19.2047 -11.3382
rtoes -2.94232
lfemur -25.7372 5.47275 -6.14552
ltibia 64.996
lfoot -10.8946 2.65499
ltoes -8.17372
52
root 15.0194 16.5814 -9.60248 -2.81432 -6.71473 1.18902
lowerback 12.6555 0.940236 1.86269
upperback 0.340023 1.61689 1.44018
thorax -6.73921 0.752281 0.174161
lowerneck -21.4464 -6.49108 -10.5093
upperneck 14.9541 -7.69351 10.0224
head 9.02061 -3.17811 4.06215
rclavicle 1.17283e-014 -3.33958e-014
rhumerus -44.4758 14.6041 -91.9589
rradius 119.018
rwrist -19.3109
rhand -7.12934 16.9528
rfingers 7.12502
rthumb 18.7464 -12.1639
lclavicle 1.17283e-014 -3.33958e-014
lhumerus -53.626 -6.08388 93.2319
lradius 106.503
lwrist 21.8443
lhand -13.329 11.9024
lfingers 7.12502
lthumb 12.776 41.4915
rfemur -14.1587 -6.1297 32.6
rtibia 50.6784
rfoot -19.0087 -11.2277
rtoes -4.45125
lfemur -27.0733 5.08234 -6.02049
ltibia 63.1718
lfoot -12.4349 3.18925
ltoes -13.8629
53
root 14.987 16.6027 -9.32692 -2.55473 -6.39087 1.22222
lowerback 12.4544 0.991606 2.00781
upperback 0.395464 1.68598 1.25625
thorax -6.55659 0.780659 -0.109792
lowerneck -21.6655 -6.65718 -10.7821
upperneck 15.0645 -7.8953 10.3526
head 9.14707 -3.24628 4.18988
rclavicle 2.29099e-014 3.02153e-014
rhumerus -43.9703 14.6424 -91.9044
rradius 119.559
rwrist -19.9428
rhand -6.71133 17.4572
rfingers 7.12502
rthumb 19.1484 -11.6202
lclavicle 2.29099e-014 3.02153e-014
lhumerus -53.7497 -6.53288 93.2305
lradius 106.728
lwrist 21.8392
lhand -13.031 12.1105
lfingers 7.12502
lthumb 13.0633 41.6814
rfemur -13.7159 -6.38216 32.3669
rtibia 51.3588
rfoot -18.6675 -10.8928
rtoes -5.39119
lfemur -28.145 4.34225 -6.00977
ltibia 61.0449
lfoot -11.6272 3.72991
ltoes -10.2001
54
root 14.9529 16.6315 -9.04957 -2.31908 -6.18989 1.02262
lowerback 12.5175 1.07284 2.29952
upperback 0.347419 1.83212 1.15846
thorax -6.62868 0.84029 -0.404941
lowerneck -21.6549 -6.79644 -10.9678
upperneck 15.0953 -8.07067 10.5241
head 9.19283 -3.32102 4.25335
rclavicle 9.98893e-015 -1.51076e-014
rhumerus -43.8637 14.6244 -91.9749
rradius 120.151
rwrist -19.7852
rhand -6.71627 17.8432
rfingers 7.12502
rthumb 19.1437 -11.2347
lclavicle 9.98893e-015 -1.51076e-014
lhumerus -53.923 -6.90237 93.1787
lradius 106.772
lwrist 21.7241
lhand -12.8615 12.2995
lfingers 7.12502
lthumb 13.2267 41.8599
rfemur -13.3677 -6.61174 32.3603
rtibia 52.1678
rfoot -18.2172 -10.1823
rtoes -6.33313
lfemur -29.0576 3.52189 -5.57845
ltibia 58.4047
lfoot -11.4878 4.18981
ltoes -11.6316
55
root 14.9194 16.6674 -8.76254 -2.0653 -6.09298 1.03762
lowerback 12.3256 1.23946 2.40324
upperback 0.310536 2.05032 0.973362
thorax -6.54462 0.941851 -0.69263
lowerneck -21.3998 -6.87306 -11.0977
upperneck 14.9424 -8.22007 10.8438
head 9.13607 -3.37386 4.36548
rclavicle 1.39149e-015 1.03368e-014
rhumerus -43.986 14.492 -92.0464
rradius 120.826
rwrist -19.5343
rhand -6.737 18.0629
rfingers 7.12502
rthumb 19.1238 -11.0169
lclavicle 1.39149e-015 1.03368e-014
lhumerus -54.4335 -7.27707 93.1287
lradius 107.094
lwrist 21.5662
lhand -12.8963 12.1121
lfingers 7.12502
lthumb 13.1931 41.6747
rfemur -13.1801 -6.88792 32.0345
rtibia 53.1714
rfoot -17.6483 -9.01499
rtoes -8.45187
lfemur -29.8772 2.62011 -5.29069
ltibia 55.2746
lfoot -11.0238 4.63952
ltoes -16.7098
56
root 14.8841 16.7121 -8.47793 -1.82886 -5.85392 1.41031
lowerback 11.9855 1.31204 2.14894
upperback 0.357915 2.08548 0.756461
thorax -6.30267 0.967534 -0.773778
lowerneck -21.3186 -6.88667 -11.2148
upperneck 14.7924 -8.22107 10.951
head 9.08125 -3.37373 4.42163
rclavicle 1.28216e-014 8.74653e-015
rhumerus -43.9414 14.6781 -92.0414
rradius 121.352
rwrist -19.1591
rhand -6.60895 18.2912
rfingers 7.12502
rthumb 19.2469 -10.7764
lclavicle 1.28216e-014 8.74653e-015
lhumerus -54.6249 -7.2724 93.0356
lradius 107.321
lwrist 21.4649
lhand -12.8121 12.0253
lfingers 7.12502
lthumb 13.2743 41.5826
rfemur -13.1766 -7.39097 31.2222
rtibia 54.3155
rfoot -16.5845 -7.63025
rtoes -10.1497
lfemur -30.3956 1.38761 -5.40603
ltibia 51.9547
lfoot -9.47283 4.50079
ltoes -11.9355
57
root 14.8481 16.7521 -8.19777 -1.67309 -5.78075 1.49132
lowerback 12.1053 1.41187 2.06901
upperback 0.24244 2.20617 0.652412
thorax -6.48804 1.02418 -0.864288
lowerneck -21.2583 -6.94614 -11.154
upperneck 14.8207 -8.27444 10.6871
head 9.07013 -3.42413 4.31073
rclavicle 6.95746e-016 7.95139e-016
rhumerus -44.225 14.8384 -92.075
rradius 121.713
rwrist -18.6891
rhand -6.38419 18.8411
rfingers 7.12502
rthumb 19.463 -10.2048
lclavicle 6.95746e-016 7.95139e-016
lhumerus -54.8007 -7.12045 92.9647
lradius 107.337
lwrist 21.3176
lhand -12.8005 12.5666
lfingers 7.12502
lthumb 13.2855 42.1232
rfemur -13.2353 -7.80311 30.6831
rtibia 55.5295
rfoot -14.8256 -6.09752
rtoes -11.0507
lfemur -30.5097 0.0644929 -5.04908
ltibia 48.6107
lfoot -7.68329 3.87722
ltoes -14.6548
58
root 14.8164 16.7734 -7.92147 -1.55434 -5.9797 1.22673
lowerback 12.4087 1.56755 2.37009
upperback 0.129443 2.46046 0.56298
thorax -6.75538 1.13223 -1.18412
lowerneck -21.1733 -7.04595 -11.0655
upperneck 14.8118 -8.4233 10.57
head 9.05979 -3.50325 4.2322
rclavicle 5.36719e-015 2.38542e-015
rhumerus -44.3663 14.8406 -92.2246
rradius 121.786
rwrist -18.2271
rhand -6.44625 18.8639
rfingers 7.12502
rthumb 19.4033 -10.188
lclavicle 5.36719e-015 2.38542e-015
lhumerus -55.0113 -7.10937 92.8133
lradius 107.369
lwrist 21.3524
lhand -13.1869 13.0253
lfingers 7.12502
lthumb 12.913 42.6057
rfemur -13.3138 -7.91516 30.4649
rtibia 56.8007
rfoot -12.6086 -4.08495
rtoes -9.91698
lfemur -30.4314 -1.0645 -4.07869
ltibia 45.2599
lfoot -6.05551 3.06424
ltoes -12.0234
59
root 14.7818 16.8067 -7.63691 -1.51816 -6.22193 1.41965
lowerback 12.3764 1.76243 2.17605
upperback 0.295585 2.67689 0.41991
thorax -6.55447 1.24626 -1.25898
lowerneck -21.2227 -7.17858 -11.0726
upperneck 14.5223 -8.58525 10.6233
head 8.99112 -3.57408 4.2223
rclavicle 1.30701e-014 -4.77083e-015
rhumerus -44.0822 14.9887 -92.138
rradius 121.77
rwrist -17.8926
rhand -6.52752 18.7171
rfingers 7.12502
rthumb 19.3252 -10.3427
lclavicle 1.30701e-014 -4.77083e-015
lhumerus -55.168 -6.92606 92.7371
lradius 107.745
lwrist 21.3846
lhand -13.5533 14.084
lfingers 7.12502
lthumb 12.5598 43.6865
rfemur -13.3058 -8.06348 29.6257
rtibia 58.0317
rfoot -10.4994 -1.89481
rtoes -8.21228
lfemur -30.0495 -2.52634 -3.50545
ltibia 41.7297
lfoot -4.02686 2.51418
ltoes -13.2157
60
root 14.7478 16.831 -7.34625 -1.60153 -6.47531 1.83824
lowerback 12.3518 1.92867 1.76539
upperback 0.476873 2.82003 0.192468
thorax -6.35092 1.32963 -1.28698
lowerneck -21.0669 -7.17901 -11.2083
upperneck 14.272 -8.59115 10.8684
head 8.89899 -3.56643 4.32942
rclavicle 1.49089e-016 4.37326e-015
rhumerus -44.1133 15.1012 -92.1477
rradius 121.859
rwrist -17.57
rhand -6.53406 19.018
rfingers 7.12502
rthumb 19.3189 -10.0424
lclavicle 1.49089e-016 4.37326e-015
lhumerus -55.32 -6.73318 92.4544
lradius 108.125
lwrist 21.5513
lhand -13.2195 14.9919
lfingers 7.12502
lthumb 12.8816 44.5743
rfemur -13.2466 -8.287 28.4644
rtibia 59.229
rfoot -8.47505 0.299204
rtoes -5.56381
lfemur -29.4647 -4.44424 -3.02819
ltibia 37.9677
lfoot -1.43914 1.98323
ltoes -14.8173
61
root 14.7178 16.8363 -7.05767 -1.78804 -7.03893 1.8264
lowerback 12.5191 2.16836 1.75319
upperback 0.648327 3.12942 0.0864867
thorax -6.24735 1.48213 -1.4476
lowerneck -20.8903 -7.16595 -11.3051
upperneck 14.141 -8.58621 11.0341
head 8.83681 -3.55965 4.40548
rclavicle -7.40473e-015 -1.11319e-014
rhumerus -44.3851 15.1476 -92.2446
rradius 121.964
rwrist -17.0595
rhand -6.57995 19.0748
rfingers 7.12502
rthumb 19.2748 -9.98997
lclavicle -7.40473e-015 -1.11319e-014
lhumerus -55.2796 -6.62701 92.1515
lradius 108.302
lwrist 21.7457
lhand -13.6206 15.0073
lfingers 7.12502
lthumb 12.495 44.6137
rfemur -13.0555 -8.17121 27.7773
rtibia 60.3216
rfoot -6.18847 2.5134
rtoes -1.22041
lfemur -28.4919 -6.6144 -1.86114
ltibia 34.0787
lfoot 0.825884 1.71437
ltoes -16.0144
62
root 14.6896 16.8304 -6.76881 -2.01643 -7.85526 1.64781
lowerback 12.7202 2.44795 1.86258
upperback 0.860581 3.51235 0.0379877
thorax -6.11177 1.66897 -1.62938
lowerneck -20.7937 -7.25261 -11.2626
upperneck 13.9861 -8.72554 11.0823
head 8.78508 -3.62207 4.39321
rclavicle 1.98785e-016 -2.78299e-015
rhumerus -44.4873 15.3295 -92.3771
rradius 121.824
rwrist -16.4019
rhand -6.82232 18.6623
rfingers 7.12502
rthumb 19.0417 -10.4256
lclavicle 1.98785e-016 -2.78299e-015
lhumerus -55.3702 -6.38026 91.8974
lradius 108.711
lwrist 21.9933
lhand -15.196 15.3514
lfingers 7.12502
lthumb 10.9757 45.0445
rfemur -12.6578 -7.7006 27.2768
rtibia 61.2782
rfoot -4.10301 4.91164
rtoes 3.51311
lfemur -27.1754 -8.79635 -0.432677
ltibia 30.3201
lfoot 2.06477 1.80349
ltoes -18.94
63
root 14.6563 16.8148 -6.47801 -2.15429 -8.6386 1.65927
lowerback 12.789 2.66092 1.68286
upperback 0.968368 3.76395 -0.0263259
thorax -6.03352 1.79791 -1.63973
lowerneck -20.2504 -7.2427 -11.2
upperneck 13.6084 -8.76785 11.1429
head 8.56945 -3.65397 4.40243
rclavicle -9.24349e-015 5.1684e-015
rhumerus -44.5423 15.629 -92.5173
rradius 121.396
rwrist -15.7923
rhand -7.13954 18.8058
rfingers 7.12502
rthumb 18.7366 -10.3119
lclavicle -9.24349e-015 5.1684e-015
lhumerus -55.8769 -5.96192 91.6227
lradius 109.363
lwrist 22.0408
lhand -16.2785 16.3814
lfingers 7.12502
lthumb 9.93144 46.1271
rfemur -12.3501 -7.16457 26.6589
rtibia 62.1695
rfoot -2.08516 7.08629
rtoes 7.55757
lfemur -26.2514 -10.284 0.703281
ltibia 27.0473
lfoot 2.79012 1.29417
ltoes -14.9564
64
root 14.616 16.7972 -6.18353 -2.18789 -9.27919 1.67132
lowerback 12.7893 2.78998 1.44788
upperback 0.987169 3.89949 -0.0494609
thorax -6.02291 1.87031 -1.55534
lowerneck -19.8455 -7.05794 -11.417
upperneck 13.5068 -8.53506 11.3917
head 8.46097 -3.54675 4.56579
rclavicle -5.30755e-014 -7.95139e-016
rhumerus -44.7295 15.9609 -92.6585
rradius 120.954
rwrist -15.3896
rhand -7.10249 19.324
rfingers 7.12502
rthumb 18.7722 -9.79018
lclavicle -5.30755e-014 -7.95139e-016
lhumerus -56.6911 -5.46983 91.3886
lradius 110.17
lwrist 22.0733
lhand -16.3161 18.1609
lfingers 7.12502
lthumb 9.8952 47.9083
rfemur -12.1501 -6.78217 26.0834
rtibia 63.0003
rfoot 0.0901253 9.06962
rtoes 10.9859
lfemur -25.6516 -11.1929 1.63514
ltibia 24.4636
lfoot 3.64601 0.309272
ltoes -10.9481
